<mxfile host="app.diagrams.net" agent="Mozilla/5.0 (X11; Linux x86_64; rv:139.0) Gecko/20100101 Firefox/139.0" version="27.1.6">
  <diagram name="Page-1" id="MRzbRblXTeKNNY7XCS2v">
    <mxGraphModel dx="383" dy="193" grid="1" gridSize="10" guides="1" tooltips="1" connect="1" arrows="1" fold="1" page="1" pageScale="1" pageWidth="850" pageHeight="1100" math="1" shadow="0">
      <root>
        <mxCell id="0" />
        <mxCell id="1" parent="0" />
        <mxCell id="EHQC3_KKdu366pLHCaqX-48" value="" style="endArrow=none;dashed=1;html=1;rounded=0;strokeWidth=0.5;curved=0;jumpSize=6;startSize=6;targetPerimeterSpacing=0;fillColor=#f8cecc;strokeColor=#b85450;" edge="1" parent="1">
          <mxGeometry width="50" height="50" relative="1" as="geometry">
            <mxPoint x="184" y="449" as="sourcePoint" />
            <mxPoint x="184" y="439" as="targetPoint" />
          </mxGeometry>
        </mxCell>
        <mxCell id="EHQC3_KKdu366pLHCaqX-136" value="" style="endArrow=none;html=1;rounded=0;strokeWidth=0.5;fillColor=#f8cecc;strokeColor=#b85450;" edge="1" parent="1">
          <mxGeometry width="50" height="50" relative="1" as="geometry">
            <mxPoint x="187" y="450" as="sourcePoint" />
            <mxPoint x="193" y="444" as="targetPoint" />
          </mxGeometry>
        </mxCell>
        <mxCell id="EHQC3_KKdu366pLHCaqX-138" value="" style="endArrow=none;html=1;rounded=0;strokeWidth=0.5;fillColor=#f8cecc;strokeColor=#b85450;" edge="1" parent="1">
          <mxGeometry width="50" height="50" relative="1" as="geometry">
            <mxPoint x="185.5" y="450" as="sourcePoint" />
            <mxPoint x="192" y="443.5" as="targetPoint" />
          </mxGeometry>
        </mxCell>
        <mxCell id="EHQC3_KKdu366pLHCaqX-139" value="" style="endArrow=none;html=1;rounded=0;strokeWidth=0.5;fillColor=#f8cecc;strokeColor=#b85450;" edge="1" parent="1">
          <mxGeometry width="50" height="50" relative="1" as="geometry">
            <mxPoint x="184.5" y="449" as="sourcePoint" />
            <mxPoint x="190.5" y="443" as="targetPoint" />
          </mxGeometry>
        </mxCell>
        <mxCell id="EHQC3_KKdu366pLHCaqX-143" value="" style="endArrow=none;html=1;rounded=0;strokeWidth=0.5;fillColor=#f8cecc;strokeColor=#b85450;" edge="1" parent="1">
          <mxGeometry width="50" height="50" relative="1" as="geometry">
            <mxPoint x="189" y="450" as="sourcePoint" />
            <mxPoint x="194" y="445" as="targetPoint" />
          </mxGeometry>
        </mxCell>
        <mxCell id="EHQC3_KKdu366pLHCaqX-144" value="" style="endArrow=none;html=1;rounded=0;strokeWidth=0.5;fillColor=#f8cecc;strokeColor=#b85450;" edge="1" parent="1">
          <mxGeometry width="50" height="50" relative="1" as="geometry">
            <mxPoint x="191" y="450" as="sourcePoint" />
            <mxPoint x="195" y="446" as="targetPoint" />
          </mxGeometry>
        </mxCell>
        <mxCell id="EHQC3_KKdu366pLHCaqX-145" value="" style="endArrow=none;html=1;rounded=0;strokeWidth=0.5;fillColor=#f8cecc;strokeColor=#b85450;" edge="1" parent="1">
          <mxGeometry width="50" height="50" relative="1" as="geometry">
            <mxPoint x="195" y="450" as="sourcePoint" />
            <mxPoint x="198" y="447" as="targetPoint" />
          </mxGeometry>
        </mxCell>
        <mxCell id="EHQC3_KKdu366pLHCaqX-146" value="" style="endArrow=none;html=1;rounded=0;strokeWidth=0.5;fillColor=#f8cecc;strokeColor=#b85450;" edge="1" parent="1">
          <mxGeometry width="50" height="50" relative="1" as="geometry">
            <mxPoint x="193" y="450" as="sourcePoint" />
            <mxPoint x="196.5" y="446.5" as="targetPoint" />
          </mxGeometry>
        </mxCell>
        <mxCell id="EHQC3_KKdu366pLHCaqX-147" value="" style="endArrow=none;html=1;rounded=0;strokeWidth=0.5;fillColor=#f8cecc;strokeColor=#b85450;" edge="1" parent="1">
          <mxGeometry width="50" height="50" relative="1" as="geometry">
            <mxPoint x="197" y="450" as="sourcePoint" />
            <mxPoint x="199" y="448" as="targetPoint" />
          </mxGeometry>
        </mxCell>
        <mxCell id="EHQC3_KKdu366pLHCaqX-148" value="" style="endArrow=none;html=1;rounded=0;strokeWidth=0.5;fillColor=#f8cecc;strokeColor=#b85450;" edge="1" parent="1">
          <mxGeometry width="50" height="50" relative="1" as="geometry">
            <mxPoint x="184" y="448" as="sourcePoint" />
            <mxPoint x="190" y="442" as="targetPoint" />
          </mxGeometry>
        </mxCell>
        <mxCell id="EHQC3_KKdu366pLHCaqX-149" value="" style="endArrow=none;html=1;rounded=0;strokeWidth=0.5;fillColor=#f8cecc;strokeColor=#b85450;" edge="1" parent="1">
          <mxGeometry width="50" height="50" relative="1" as="geometry">
            <mxPoint x="184.5" y="445.5" as="sourcePoint" />
            <mxPoint x="188.5" y="441.5" as="targetPoint" />
          </mxGeometry>
        </mxCell>
        <mxCell id="EHQC3_KKdu366pLHCaqX-151" value="" style="endArrow=none;html=1;rounded=0;strokeWidth=0.5;fillColor=#f8cecc;strokeColor=#b85450;" edge="1" parent="1">
          <mxGeometry width="50" height="50" relative="1" as="geometry">
            <mxPoint x="184" y="444" as="sourcePoint" />
            <mxPoint x="187" y="441" as="targetPoint" />
          </mxGeometry>
        </mxCell>
        <mxCell id="EHQC3_KKdu366pLHCaqX-153" value="" style="endArrow=none;html=1;rounded=0;strokeWidth=0.5;fillColor=#f8cecc;strokeColor=#b85450;" edge="1" parent="1">
          <mxGeometry width="50" height="50" relative="1" as="geometry">
            <mxPoint x="184" y="442" as="sourcePoint" />
            <mxPoint x="186" y="440" as="targetPoint" />
          </mxGeometry>
        </mxCell>
        <mxCell id="EHQC3_KKdu366pLHCaqX-47" value="" style="endArrow=none;dashed=1;html=1;rounded=0;strokeWidth=0.5;fillColor=#f8cecc;strokeColor=#b85450;" edge="1" parent="1">
          <mxGeometry width="50" height="50" relative="1" as="geometry">
            <mxPoint x="95" y="449" as="sourcePoint" />
            <mxPoint x="95" y="436" as="targetPoint" />
          </mxGeometry>
        </mxCell>
        <mxCell id="EHQC3_KKdu366pLHCaqX-107" value="" style="endArrow=none;html=1;rounded=0;strokeWidth=0.5;fillColor=#f8cecc;strokeColor=#b85450;" edge="1" parent="1">
          <mxGeometry width="50" height="50" relative="1" as="geometry">
            <mxPoint x="86" y="447" as="sourcePoint" />
            <mxPoint x="94.5" y="438.5" as="targetPoint" />
          </mxGeometry>
        </mxCell>
        <mxCell id="EHQC3_KKdu366pLHCaqX-123" value="" style="endArrow=none;html=1;rounded=0;strokeWidth=0.5;fillColor=#f8cecc;strokeColor=#b85450;" edge="1" parent="1">
          <mxGeometry width="50" height="50" relative="1" as="geometry">
            <mxPoint x="85" y="450" as="sourcePoint" />
            <mxPoint x="95" y="440" as="targetPoint" />
          </mxGeometry>
        </mxCell>
        <mxCell id="EHQC3_KKdu366pLHCaqX-124" value="" style="endArrow=none;html=1;rounded=0;strokeWidth=0.5;fillColor=#f8cecc;strokeColor=#b85450;" edge="1" parent="1">
          <mxGeometry width="50" height="50" relative="1" as="geometry">
            <mxPoint x="87" y="450" as="sourcePoint" />
            <mxPoint x="92" y="445" as="targetPoint" />
          </mxGeometry>
        </mxCell>
        <mxCell id="EHQC3_KKdu366pLHCaqX-125" value="" style="endArrow=none;html=1;rounded=0;strokeWidth=0.5;fillColor=#f8cecc;strokeColor=#b85450;" edge="1" parent="1">
          <mxGeometry width="50" height="50" relative="1" as="geometry">
            <mxPoint x="89" y="448" as="sourcePoint" />
            <mxPoint x="95" y="442" as="targetPoint" />
          </mxGeometry>
        </mxCell>
        <mxCell id="EHQC3_KKdu366pLHCaqX-127" value="" style="endArrow=none;html=1;rounded=0;strokeWidth=0.5;fillColor=#f8cecc;strokeColor=#b85450;" edge="1" parent="1">
          <mxGeometry width="50" height="50" relative="1" as="geometry">
            <mxPoint x="89" y="450" as="sourcePoint" />
            <mxPoint x="95" y="444" as="targetPoint" />
          </mxGeometry>
        </mxCell>
        <mxCell id="EHQC3_KKdu366pLHCaqX-128" value="" style="endArrow=none;html=1;rounded=0;strokeWidth=0.5;fillColor=#f8cecc;strokeColor=#b85450;" edge="1" parent="1">
          <mxGeometry width="50" height="50" relative="1" as="geometry">
            <mxPoint x="91" y="450" as="sourcePoint" />
            <mxPoint x="95" y="446" as="targetPoint" />
          </mxGeometry>
        </mxCell>
        <mxCell id="EHQC3_KKdu366pLHCaqX-129" value="" style="endArrow=none;html=1;rounded=0;strokeWidth=0.5;fillColor=#f8cecc;strokeColor=#b85450;" edge="1" parent="1">
          <mxGeometry width="50" height="50" relative="1" as="geometry">
            <mxPoint x="93" y="450" as="sourcePoint" />
            <mxPoint x="95" y="448" as="targetPoint" />
          </mxGeometry>
        </mxCell>
        <mxCell id="EHQC3_KKdu366pLHCaqX-44" value="" style="endArrow=none;dashed=1;html=1;rounded=0;strokeWidth=0.5;fillColor=#f8cecc;strokeColor=#b85450;" edge="1" parent="1">
          <mxGeometry width="50" height="50" relative="1" as="geometry">
            <mxPoint x="120" y="339" as="sourcePoint" />
            <mxPoint x="120" y="327" as="targetPoint" />
          </mxGeometry>
        </mxCell>
        <mxCell id="EHQC3_KKdu366pLHCaqX-53" value="" style="endArrow=none;html=1;rounded=0;strokeWidth=0.5;fillColor=#f8cecc;strokeColor=#b85450;" edge="1" parent="1">
          <mxGeometry width="50" height="50" relative="1" as="geometry">
            <mxPoint x="120" y="331" as="sourcePoint" />
            <mxPoint x="123" y="328" as="targetPoint" />
          </mxGeometry>
        </mxCell>
        <mxCell id="EHQC3_KKdu366pLHCaqX-55" value="" style="endArrow=none;html=1;rounded=0;strokeWidth=0.5;fillColor=#f8cecc;strokeColor=#b85450;" edge="1" parent="1">
          <mxGeometry width="50" height="50" relative="1" as="geometry">
            <mxPoint x="120" y="333" as="sourcePoint" />
            <mxPoint x="124" y="329" as="targetPoint" />
          </mxGeometry>
        </mxCell>
        <mxCell id="EHQC3_KKdu366pLHCaqX-56" value="" style="endArrow=none;html=1;rounded=0;strokeWidth=0.5;fillColor=#f8cecc;strokeColor=#b85450;" edge="1" parent="1">
          <mxGeometry width="50" height="50" relative="1" as="geometry">
            <mxPoint x="120" y="335" as="sourcePoint" />
            <mxPoint x="126" y="329" as="targetPoint" />
          </mxGeometry>
        </mxCell>
        <mxCell id="EHQC3_KKdu366pLHCaqX-59" value="" style="endArrow=none;html=1;rounded=0;strokeWidth=0.5;fillColor=#f8cecc;strokeColor=#b85450;" edge="1" parent="1">
          <mxGeometry width="50" height="50" relative="1" as="geometry">
            <mxPoint x="120" y="337" as="sourcePoint" />
            <mxPoint x="127" y="330" as="targetPoint" />
          </mxGeometry>
        </mxCell>
        <mxCell id="EHQC3_KKdu366pLHCaqX-65" value="" style="endArrow=none;html=1;rounded=0;strokeWidth=0.5;fillColor=#f8cecc;strokeColor=#b85450;" edge="1" parent="1">
          <mxGeometry width="50" height="50" relative="1" as="geometry">
            <mxPoint x="120" y="339" as="sourcePoint" />
            <mxPoint x="128.5" y="330.5" as="targetPoint" />
          </mxGeometry>
        </mxCell>
        <mxCell id="EHQC3_KKdu366pLHCaqX-66" value="" style="endArrow=none;html=1;rounded=0;strokeWidth=0.5;fillColor=#f8cecc;strokeColor=#b85450;" edge="1" parent="1">
          <mxGeometry width="50" height="50" relative="1" as="geometry">
            <mxPoint x="121" y="340" as="sourcePoint" />
            <mxPoint x="130" y="331" as="targetPoint" />
          </mxGeometry>
        </mxCell>
        <mxCell id="EHQC3_KKdu366pLHCaqX-70" value="" style="endArrow=none;html=1;rounded=0;strokeWidth=0.5;fillColor=#f8cecc;strokeColor=#b85450;" edge="1" parent="1">
          <mxGeometry width="50" height="50" relative="1" as="geometry">
            <mxPoint x="123" y="340" as="sourcePoint" />
            <mxPoint x="131.5" y="331.5" as="targetPoint" />
          </mxGeometry>
        </mxCell>
        <mxCell id="EHQC3_KKdu366pLHCaqX-79" value="" style="endArrow=none;html=1;rounded=0;strokeWidth=0.5;fillColor=#f8cecc;strokeColor=#b85450;" edge="1" parent="1">
          <mxGeometry width="50" height="50" relative="1" as="geometry">
            <mxPoint x="125.5" y="340" as="sourcePoint" />
            <mxPoint x="133.5" y="332" as="targetPoint" />
          </mxGeometry>
        </mxCell>
        <mxCell id="EHQC3_KKdu366pLHCaqX-80" value="" style="endArrow=none;html=1;rounded=0;strokeWidth=0.5;fillColor=#f8cecc;strokeColor=#b85450;" edge="1" parent="1">
          <mxGeometry width="50" height="50" relative="1" as="geometry">
            <mxPoint x="127.5" y="340" as="sourcePoint" />
            <mxPoint x="134.5" y="333" as="targetPoint" />
          </mxGeometry>
        </mxCell>
        <mxCell id="EHQC3_KKdu366pLHCaqX-82" value="" style="endArrow=none;html=1;rounded=0;strokeWidth=0.5;fillColor=#f8cecc;strokeColor=#b85450;" edge="1" parent="1">
          <mxGeometry width="50" height="50" relative="1" as="geometry">
            <mxPoint x="130" y="340" as="sourcePoint" />
            <mxPoint x="137" y="333" as="targetPoint" />
          </mxGeometry>
        </mxCell>
        <mxCell id="EHQC3_KKdu366pLHCaqX-83" value="" style="endArrow=none;html=1;rounded=0;strokeWidth=0.5;fillColor=#f8cecc;strokeColor=#b85450;" edge="1" parent="1">
          <mxGeometry width="50" height="50" relative="1" as="geometry">
            <mxPoint x="136" y="340" as="sourcePoint" />
            <mxPoint x="141" y="335" as="targetPoint" />
          </mxGeometry>
        </mxCell>
        <mxCell id="EHQC3_KKdu366pLHCaqX-84" value="" style="endArrow=none;html=1;rounded=0;strokeWidth=0.5;fillColor=#f8cecc;strokeColor=#b85450;" edge="1" parent="1">
          <mxGeometry width="50" height="50" relative="1" as="geometry">
            <mxPoint x="132" y="340" as="sourcePoint" />
            <mxPoint x="138" y="334" as="targetPoint" />
          </mxGeometry>
        </mxCell>
        <mxCell id="EHQC3_KKdu366pLHCaqX-87" value="" style="endArrow=none;html=1;rounded=0;strokeWidth=0.5;fillColor=#f8cecc;strokeColor=#b85450;" edge="1" parent="1">
          <mxGeometry width="50" height="50" relative="1" as="geometry">
            <mxPoint x="134" y="340" as="sourcePoint" />
            <mxPoint x="140" y="334" as="targetPoint" />
          </mxGeometry>
        </mxCell>
        <mxCell id="EHQC3_KKdu366pLHCaqX-89" value="" style="endArrow=none;html=1;rounded=0;strokeWidth=0.5;fillColor=#f8cecc;strokeColor=#b85450;" edge="1" parent="1">
          <mxGeometry width="50" height="50" relative="1" as="geometry">
            <mxPoint x="138.5" y="340" as="sourcePoint" />
            <mxPoint x="143" y="335.5" as="targetPoint" />
          </mxGeometry>
        </mxCell>
        <mxCell id="EHQC3_KKdu366pLHCaqX-90" value="" style="endArrow=none;html=1;rounded=0;strokeWidth=0.5;fillColor=#f8cecc;strokeColor=#b85450;" edge="1" parent="1">
          <mxGeometry width="50" height="50" relative="1" as="geometry">
            <mxPoint x="143" y="339.5" as="sourcePoint" />
            <mxPoint x="146.5" y="336" as="targetPoint" />
          </mxGeometry>
        </mxCell>
        <mxCell id="EHQC3_KKdu366pLHCaqX-93" value="" style="endArrow=none;html=1;rounded=0;strokeWidth=0.5;fillColor=#f8cecc;strokeColor=#b85450;" edge="1" parent="1">
          <mxGeometry width="50" height="50" relative="1" as="geometry">
            <mxPoint x="141" y="339.5" as="sourcePoint" />
            <mxPoint x="144.5" y="336" as="targetPoint" />
          </mxGeometry>
        </mxCell>
        <mxCell id="EHQC3_KKdu366pLHCaqX-95" value="" style="endArrow=none;html=1;rounded=0;strokeWidth=0.5;fillColor=#f8cecc;strokeColor=#b85450;" edge="1" parent="1">
          <mxGeometry width="50" height="50" relative="1" as="geometry">
            <mxPoint x="145" y="340" as="sourcePoint" />
            <mxPoint x="148" y="337" as="targetPoint" />
          </mxGeometry>
        </mxCell>
        <mxCell id="EHQC3_KKdu366pLHCaqX-96" value="" style="endArrow=none;html=1;rounded=0;strokeWidth=0.5;fillColor=#f8cecc;strokeColor=#b85450;" edge="1" parent="1">
          <mxGeometry width="50" height="50" relative="1" as="geometry">
            <mxPoint x="147" y="340" as="sourcePoint" />
            <mxPoint x="150" y="337" as="targetPoint" />
          </mxGeometry>
        </mxCell>
        <mxCell id="EHQC3_KKdu366pLHCaqX-97" value="" style="endArrow=none;html=1;rounded=0;strokeWidth=0.5;fillColor=#f8cecc;strokeColor=#b85450;" edge="1" parent="1">
          <mxGeometry width="50" height="50" relative="1" as="geometry">
            <mxPoint x="149" y="340" as="sourcePoint" />
            <mxPoint x="151" y="338" as="targetPoint" />
          </mxGeometry>
        </mxCell>
        <mxCell id="EHQC3_KKdu366pLHCaqX-98" value="" style="endArrow=none;html=1;rounded=0;strokeWidth=0.5;fillColor=#f8cecc;strokeColor=#b85450;" edge="1" parent="1">
          <mxGeometry width="50" height="50" relative="1" as="geometry">
            <mxPoint x="151" y="340" as="sourcePoint" />
            <mxPoint x="153" y="338" as="targetPoint" />
          </mxGeometry>
        </mxCell>
        <mxCell id="EHQC3_KKdu366pLHCaqX-1" value="Model" style="rounded=0;whiteSpace=wrap;html=1;" vertex="1" parent="1">
          <mxGeometry x="200" y="200" width="80" height="40" as="geometry" />
        </mxCell>
        <mxCell id="EHQC3_KKdu366pLHCaqX-3" value="" style="endArrow=classic;html=1;rounded=0;entryX=0;entryY=0.5;entryDx=0;entryDy=0;" edge="1" parent="1" target="EHQC3_KKdu366pLHCaqX-1">
          <mxGeometry width="50" height="50" relative="1" as="geometry">
            <mxPoint x="160" y="220" as="sourcePoint" />
            <mxPoint x="340" y="250" as="targetPoint" />
          </mxGeometry>
        </mxCell>
        <mxCell id="EHQC3_KKdu366pLHCaqX-4" value="" style="endArrow=classic;html=1;rounded=0;entryX=0;entryY=0.5;entryDx=0;entryDy=0;" edge="1" parent="1">
          <mxGeometry width="50" height="50" relative="1" as="geometry">
            <mxPoint x="280" y="219.83" as="sourcePoint" />
            <mxPoint x="320" y="219.83" as="targetPoint" />
          </mxGeometry>
        </mxCell>
        <mxCell id="EHQC3_KKdu366pLHCaqX-7" value="$$\hat{y_i}$$" style="text;html=1;align=center;verticalAlign=middle;whiteSpace=wrap;rounded=0;" vertex="1" parent="1">
          <mxGeometry x="320" y="205" width="35" height="30" as="geometry" />
        </mxCell>
        <mxCell id="EHQC3_KKdu366pLHCaqX-8" value="$$x_i$$" style="text;html=1;align=center;verticalAlign=middle;whiteSpace=wrap;rounded=0;" vertex="1" parent="1">
          <mxGeometry x="125" y="205" width="35" height="30" as="geometry" />
        </mxCell>
        <mxCell id="EHQC3_KKdu366pLHCaqX-27" value="" style="shape=curlyBracket;whiteSpace=wrap;html=1;rounded=1;labelPosition=left;verticalLabelPosition=middle;align=right;verticalAlign=middle;rotation=90;size=0.5;fillColor=#f8cecc;strokeColor=#b85450;" vertex="1" parent="1">
          <mxGeometry x="130" y="296" width="14" height="34" as="geometry" />
        </mxCell>
        <mxCell id="EHQC3_KKdu366pLHCaqX-28" value="" style="shape=curlyBracket;whiteSpace=wrap;html=1;rounded=1;labelPosition=left;verticalLabelPosition=middle;align=right;verticalAlign=middle;rotation=90;size=0.5;fillColor=#f8cecc;strokeColor=#b85450;" vertex="1" parent="1">
          <mxGeometry x="191.5" y="413" width="14" height="28" as="geometry" />
        </mxCell>
        <mxCell id="EHQC3_KKdu366pLHCaqX-30" value="" style="rounded=0;whiteSpace=wrap;html=1;fillColor=default;strokeColor=none;" vertex="1" parent="1">
          <mxGeometry x="207.5" y="425" width="40" height="10" as="geometry" />
        </mxCell>
        <mxCell id="EHQC3_KKdu366pLHCaqX-29" value="" style="endArrow=none;dashed=1;html=1;dashPattern=1 1;strokeWidth=1;rounded=0;fillColor=#f8cecc;strokeColor=#b85450;" edge="1" parent="1">
          <mxGeometry width="50" height="50" relative="1" as="geometry">
            <mxPoint x="208.5" y="426.93" as="sourcePoint" />
            <mxPoint x="229" y="427" as="targetPoint" />
          </mxGeometry>
        </mxCell>
        <mxCell id="EHQC3_KKdu366pLHCaqX-33" value="" style="shape=curlyBracket;whiteSpace=wrap;html=1;rounded=1;labelPosition=left;verticalLabelPosition=middle;align=right;verticalAlign=middle;rotation=90;size=0.5;fillColor=#f8cecc;strokeColor=#b85450;" vertex="1" parent="1">
          <mxGeometry x="73.5" y="412" width="14" height="28" as="geometry" />
        </mxCell>
        <mxCell id="EHQC3_KKdu366pLHCaqX-35" value="" style="rounded=0;whiteSpace=wrap;html=1;fillColor=default;strokeColor=none;" vertex="1" parent="1">
          <mxGeometry x="33.5" y="424" width="40" height="10" as="geometry" />
        </mxCell>
        <mxCell id="EHQC3_KKdu366pLHCaqX-36" value="" style="endArrow=none;dashed=1;html=1;dashPattern=1 1;strokeWidth=1;rounded=0;fillColor=#f8cecc;strokeColor=#b85450;" edge="1" parent="1">
          <mxGeometry width="50" height="50" relative="1" as="geometry">
            <mxPoint x="50" y="426" as="sourcePoint" />
            <mxPoint x="73.5" y="425.93" as="targetPoint" />
          </mxGeometry>
        </mxCell>
        <mxCell id="EHQC3_KKdu366pLHCaqX-37" value="&lt;font style=&quot;font-size: 10px;&quot;&gt;$$\alpha/2$$&lt;/font&gt;" style="text;html=1;align=center;verticalAlign=middle;whiteSpace=wrap;rounded=0;fontColor=light-dark(#bf4040, #d0635f);" vertex="1" parent="1">
          <mxGeometry x="66.5" y="405" width="26" height="11" as="geometry" />
        </mxCell>
        <mxCell id="EHQC3_KKdu366pLHCaqX-38" value="&lt;font style=&quot;font-size: 10px;&quot;&gt;$$\alpha/2$$&lt;/font&gt;" style="text;html=1;align=center;verticalAlign=middle;whiteSpace=wrap;rounded=0;fillColor=none;strokeColor=none;fontColor=light-dark(#bf4040, #ededed);" vertex="1" parent="1">
          <mxGeometry x="185.5" y="407" width="26" height="11" as="geometry" />
        </mxCell>
        <mxCell id="EHQC3_KKdu366pLHCaqX-39" value="" style="endArrow=none;html=1;rounded=0;" edge="1" parent="1">
          <mxGeometry width="50" height="50" relative="1" as="geometry">
            <mxPoint x="143.5" y="456" as="sourcePoint" />
            <mxPoint x="143.5" y="390" as="targetPoint" />
          </mxGeometry>
        </mxCell>
        <mxCell id="EHQC3_KKdu366pLHCaqX-40" value="&lt;font style=&quot;font-size: 10px;&quot;&gt;$$0$$&lt;/font&gt;" style="text;html=1;align=center;verticalAlign=middle;whiteSpace=wrap;rounded=0;" vertex="1" parent="1">
          <mxGeometry x="133.5" y="458" width="20" height="8" as="geometry" />
        </mxCell>
        <mxCell id="EHQC3_KKdu366pLHCaqX-41" value="&lt;font style=&quot;font-size: 10px;&quot;&gt;$$\alpha$$&lt;/font&gt;" style="text;html=1;align=center;verticalAlign=middle;whiteSpace=wrap;rounded=0;fillColor=none;strokeColor=none;" vertex="1" parent="1">
          <mxGeometry x="124" y="292" width="26" height="11" as="geometry" />
        </mxCell>
        <mxCell id="EHQC3_KKdu366pLHCaqX-26" value="" style="curved=1;endArrow=none;html=1;rounded=0;strokeColor=#000000;startFill=0;fillColor=#d5e8d4;" edge="1" parent="1">
          <mxGeometry width="50" height="50" relative="1" as="geometry">
            <mxPoint x="60" y="291" as="sourcePoint" />
            <mxPoint x="160" y="340" as="targetPoint" />
            <Array as="points">
              <mxPoint x="70" y="291" />
              <mxPoint x="90" y="310" />
              <mxPoint x="100" y="310" />
              <mxPoint x="120" y="330" />
            </Array>
          </mxGeometry>
        </mxCell>
        <mxCell id="EHQC3_KKdu366pLHCaqX-13" value="" style="endArrow=none;html=1;rounded=0;" edge="1" parent="1">
          <mxGeometry width="50" height="50" relative="1" as="geometry">
            <mxPoint x="170" y="340" as="sourcePoint" />
            <mxPoint x="60" y="340" as="targetPoint" />
          </mxGeometry>
        </mxCell>
        <mxCell id="EHQC3_KKdu366pLHCaqX-42" value="" style="rounded=0;whiteSpace=wrap;html=1;fillColor=default;strokeColor=none;" vertex="1" parent="1">
          <mxGeometry x="145.5" y="310" width="40" height="10" as="geometry" />
        </mxCell>
        <mxCell id="EHQC3_KKdu366pLHCaqX-43" value="" style="endArrow=none;dashed=1;html=1;dashPattern=1 1;strokeWidth=1;rounded=0;fillColor=#f8cecc;strokeColor=#b85450;" edge="1" parent="1">
          <mxGeometry width="50" height="50" relative="1" as="geometry">
            <mxPoint x="146.5" y="312.93" as="sourcePoint" />
            <mxPoint x="170.5" y="313.05" as="targetPoint" />
          </mxGeometry>
        </mxCell>
        <mxCell id="EHQC3_KKdu366pLHCaqX-45" value="&lt;font style=&quot;font-size: 8px;&quot;&gt;Absolute error&lt;/font&gt;" style="text;html=1;align=center;verticalAlign=middle;whiteSpace=wrap;rounded=0;" vertex="1" parent="1">
          <mxGeometry x="31" y="356" width="61.5" height="14" as="geometry" />
        </mxCell>
        <mxCell id="EHQC3_KKdu366pLHCaqX-46" value="&lt;font style=&quot;font-size: 9px;&quot;&gt;Signed error&lt;/font&gt;" style="text;html=1;align=center;verticalAlign=middle;whiteSpace=wrap;rounded=0;" vertex="1" parent="1">
          <mxGeometry x="114.5" y="470" width="60" height="12" as="geometry" />
        </mxCell>
        <mxCell id="EHQC3_KKdu366pLHCaqX-16" value="" style="curved=1;endArrow=none;html=1;rounded=0;strokeColor=#000000;startFill=0;fillColor=#d5e8d4;" edge="1" parent="1">
          <mxGeometry width="50" height="50" relative="1" as="geometry">
            <mxPoint x="132.5" y="411" as="sourcePoint" />
            <mxPoint x="203.5" y="450" as="targetPoint" />
            <Array as="points">
              <mxPoint x="142.5" y="391" />
              <mxPoint x="163.5" y="420" />
              <mxPoint x="183.5" y="440" />
            </Array>
          </mxGeometry>
        </mxCell>
        <mxCell id="EHQC3_KKdu366pLHCaqX-18" value="" style="curved=1;endArrow=none;html=1;rounded=0;strokeColor=#000000;startFill=0;fillColor=#d5e8d4;" edge="1" parent="1">
          <mxGeometry width="50" height="50" relative="1" as="geometry">
            <mxPoint x="83.5" y="450" as="sourcePoint" />
            <mxPoint x="132.5" y="411" as="targetPoint" />
            <Array as="points">
              <mxPoint x="94.5" y="431" />
              <mxPoint x="122.5" y="431" />
            </Array>
          </mxGeometry>
        </mxCell>
        <mxCell id="EHQC3_KKdu366pLHCaqX-25" value="" style="endArrow=none;html=1;rounded=0;" edge="1" parent="1">
          <mxGeometry width="50" height="50" relative="1" as="geometry">
            <mxPoint x="230" y="450" as="sourcePoint" />
            <mxPoint x="50" y="450" as="targetPoint" />
          </mxGeometry>
        </mxCell>
        <mxCell id="EHQC3_KKdu366pLHCaqX-49" value="" style="endArrow=none;html=1;rounded=0;" edge="1" parent="1">
          <mxGeometry width="50" height="50" relative="1" as="geometry">
            <mxPoint x="59.84" y="346" as="sourcePoint" />
            <mxPoint x="59.84" y="280" as="targetPoint" />
          </mxGeometry>
        </mxCell>
        <mxCell id="EHQC3_KKdu366pLHCaqX-50" value="&lt;font style=&quot;font-size: 10px;&quot;&gt;$$0$$&lt;/font&gt;" style="text;html=1;align=center;verticalAlign=middle;whiteSpace=wrap;rounded=0;" vertex="1" parent="1">
          <mxGeometry x="49.75" y="347" width="20" height="8" as="geometry" />
        </mxCell>
        <mxCell id="EHQC3_KKdu366pLHCaqX-61" value="&lt;font style=&quot;font-size: 10px;&quot;&gt;$$\hat{q}$$&lt;/font&gt;" style="text;html=1;align=center;verticalAlign=middle;whiteSpace=wrap;rounded=0;" vertex="1" parent="1">
          <mxGeometry x="109" y="348" width="20" height="8" as="geometry" />
        </mxCell>
        <mxCell id="EHQC3_KKdu366pLHCaqX-62" value="" style="endArrow=none;html=1;rounded=0;exitX=0.002;exitY=-0.198;exitDx=0;exitDy=0;exitPerimeter=0;" edge="1" parent="1">
          <mxGeometry width="50" height="50" relative="1" as="geometry">
            <mxPoint x="120.04000000000002" y="345.996" as="sourcePoint" />
            <mxPoint x="120" y="339.58" as="targetPoint" />
          </mxGeometry>
        </mxCell>
        <mxCell id="EHQC3_KKdu366pLHCaqX-154" value="&lt;font style=&quot;font-size: 10px;&quot;&gt;$$\hat{q}_{lower}$$&lt;/font&gt;" style="text;html=1;align=center;verticalAlign=middle;whiteSpace=wrap;rounded=0;" vertex="1" parent="1">
          <mxGeometry x="84" y="458.42" width="20" height="8" as="geometry" />
        </mxCell>
        <mxCell id="EHQC3_KKdu366pLHCaqX-155" value="" style="endArrow=none;html=1;rounded=0;exitX=0.002;exitY=-0.198;exitDx=0;exitDy=0;exitPerimeter=0;" edge="1" parent="1">
          <mxGeometry width="50" height="50" relative="1" as="geometry">
            <mxPoint x="95.04000000000002" y="456.416" as="sourcePoint" />
            <mxPoint x="95" y="450" as="targetPoint" />
          </mxGeometry>
        </mxCell>
        <mxCell id="EHQC3_KKdu366pLHCaqX-157" value="&lt;font style=&quot;font-size: 10px;&quot;&gt;$$\hat{q}_{upper}$$&lt;/font&gt;" style="text;html=1;align=center;verticalAlign=middle;whiteSpace=wrap;rounded=0;" vertex="1" parent="1">
          <mxGeometry x="173" y="458.42" width="20" height="8" as="geometry" />
        </mxCell>
        <mxCell id="EHQC3_KKdu366pLHCaqX-158" value="" style="endArrow=none;html=1;rounded=0;exitX=0.002;exitY=-0.198;exitDx=0;exitDy=0;exitPerimeter=0;" edge="1" parent="1">
          <mxGeometry width="50" height="50" relative="1" as="geometry">
            <mxPoint x="184.04000000000002" y="456.416" as="sourcePoint" />
            <mxPoint x="184" y="450" as="targetPoint" />
          </mxGeometry>
        </mxCell>
      </root>
    </mxGraphModel>
  </diagram>
</mxfile>
